<svg width="284" height="312" viewBox="0 0 284 312" fill="none" xmlns="http://www.w3.org/2000/svg">
<rect width="283.636" height="312" rx="24" fill="#EDEDED"/>
<path d="M52.5592 239.818H53.9711L56.795 244.571H56.9143L59.7381 239.818H61.1501L57.4711 245.804V250H56.2381V245.804L52.5592 239.818ZM65.0278 250.159C64.3384 250.159 63.7335 249.995 63.2132 249.667C62.6961 249.339 62.2918 248.88 62.0001 248.29C61.7118 247.7 61.5676 247.01 61.5676 246.222C61.5676 245.426 61.7118 244.732 62.0001 244.138C62.2918 243.545 62.6961 243.085 63.2132 242.756C63.7335 242.428 64.3384 242.264 65.0278 242.264C65.7172 242.264 66.3204 242.428 66.8375 242.756C67.3578 243.085 67.7622 243.545 68.0505 244.138C68.3422 244.732 68.488 245.426 68.488 246.222C68.488 247.01 68.3422 247.7 68.0505 248.29C67.7622 248.88 67.3578 249.339 66.8375 249.667C66.3204 249.995 65.7172 250.159 65.0278 250.159ZM65.0278 249.105C65.5515 249.105 65.9824 248.971 66.3204 248.702C66.6585 248.434 66.9087 248.081 67.0711 247.643C67.2335 247.206 67.3147 246.732 67.3147 246.222C67.3147 245.711 67.2335 245.236 67.0711 244.795C66.9087 244.354 66.6585 243.998 66.3204 243.726C65.9824 243.454 65.5515 243.318 65.0278 243.318C64.5041 243.318 64.0733 243.454 63.7352 243.726C63.3971 243.998 63.1469 244.354 62.9845 244.795C62.8221 245.236 62.7409 245.711 62.7409 246.222C62.7409 246.732 62.8221 247.206 62.9845 247.643C63.1469 248.081 63.3971 248.434 63.7352 248.702C64.0733 248.971 64.5041 249.105 65.0278 249.105ZM75.5116 246.878V242.364H76.6849V250H75.5116V248.707H75.432C75.253 249.095 74.9746 249.425 74.5968 249.697C74.2189 249.965 73.7417 250.099 73.165 250.099C72.6877 250.099 72.2635 249.995 71.8922 249.786C71.521 249.574 71.2294 249.256 71.0172 248.832C70.8051 248.404 70.6991 247.866 70.6991 247.216V242.364H71.8724V247.136C71.8724 247.693 72.0281 248.137 72.3397 248.469C72.6546 248.8 73.0556 248.966 73.5428 248.966C73.8345 248.966 74.1311 248.891 74.4327 248.742C74.7376 248.593 74.9929 248.364 75.1983 248.056C75.4072 247.748 75.5116 247.355 75.5116 246.878ZM84.7846 245.406V250H83.6113V239.818H84.7846V243.557H84.8841C85.063 243.162 85.3315 242.849 85.6894 242.617C86.0507 242.382 86.5313 242.264 87.1312 242.264C87.6516 242.264 88.1073 242.369 88.4984 242.577C88.8895 242.783 89.1928 243.099 89.4082 243.527C89.6269 243.951 89.7363 244.491 89.7363 245.148V250H88.563V245.227C88.563 244.621 88.4056 244.152 88.0907 243.82C87.7792 243.486 87.3466 243.318 86.7931 243.318C86.4087 243.318 86.064 243.399 85.7591 243.562C85.4574 243.724 85.2188 243.961 85.0431 244.273C84.8708 244.584 84.7846 244.962 84.7846 245.406ZM94.55 250.179C94.0661 250.179 93.6269 250.088 93.2325 249.906C92.8381 249.72 92.5249 249.453 92.2929 249.105C92.0609 248.754 91.9449 248.33 91.9449 247.832C91.9449 247.395 92.031 247.04 92.2034 246.768C92.3757 246.493 92.6061 246.278 92.8944 246.122C93.1828 245.966 93.501 245.85 93.849 245.774C94.2003 245.695 94.5533 245.632 94.9079 245.585C95.3719 245.526 95.7481 245.481 96.0365 245.451C96.3281 245.418 96.5403 245.363 96.6728 245.287C96.8087 245.211 96.8767 245.078 96.8767 244.889V244.849C96.8767 244.359 96.7424 243.978 96.474 243.706C96.2088 243.434 95.8061 243.298 95.2659 243.298C94.7057 243.298 94.2666 243.421 93.9484 243.666C93.6302 243.911 93.4065 244.173 93.2772 244.452L92.1636 244.054C92.3625 243.59 92.6276 243.229 92.9591 242.97C93.2938 242.708 93.6584 242.526 94.0528 242.423C94.4505 242.317 94.8416 242.264 95.2261 242.264C95.4714 242.264 95.7531 242.294 96.0713 242.354C96.3928 242.41 96.7027 242.528 97.001 242.707C97.3026 242.886 97.5528 243.156 97.7517 243.517C97.9505 243.878 98.05 244.362 98.05 244.969V250H96.8767V248.966H96.817C96.7375 249.132 96.6049 249.309 96.4193 249.498C96.2337 249.687 95.9868 249.848 95.6785 249.98C95.3703 250.113 94.9941 250.179 94.55 250.179ZM94.7289 249.125C95.193 249.125 95.5841 249.034 95.9022 248.852C96.2237 248.669 96.4657 248.434 96.6281 248.146C96.7938 247.857 96.8767 247.554 96.8767 247.236V246.162C96.827 246.222 96.7176 246.276 96.5485 246.326C96.3828 246.372 96.1906 246.414 95.9718 246.45C95.7564 246.483 95.5459 246.513 95.3404 246.54C95.1383 246.563 94.9742 246.583 94.8483 246.599C94.5433 246.639 94.2583 246.704 93.9931 246.793C93.7313 246.879 93.5192 247.01 93.3568 247.186C93.1977 247.358 93.1181 247.594 93.1181 247.892C93.1181 248.3 93.269 248.608 93.5706 248.817C93.8755 249.022 94.2616 249.125 94.7289 249.125ZM106.582 242.364L103.758 250H102.565L99.7414 242.364H101.014L103.122 248.449H103.202L105.31 242.364H106.582ZM111.479 250.159C110.743 250.159 110.109 249.997 109.575 249.672C109.045 249.344 108.636 248.886 108.347 248.3C108.062 247.71 107.92 247.024 107.92 246.241C107.92 245.459 108.062 244.77 108.347 244.173C108.636 243.573 109.037 243.106 109.55 242.771C110.067 242.433 110.671 242.264 111.36 242.264C111.758 242.264 112.15 242.33 112.538 242.463C112.926 242.596 113.279 242.811 113.597 243.109C113.915 243.404 114.169 243.795 114.358 244.283C114.547 244.77 114.641 245.37 114.641 246.082V246.58H108.755V245.565H113.448C113.448 245.134 113.362 244.75 113.19 244.412C113.02 244.074 112.779 243.807 112.464 243.612C112.152 243.416 111.784 243.318 111.36 243.318C110.893 243.318 110.488 243.434 110.147 243.666C109.809 243.895 109.549 244.193 109.366 244.561C109.184 244.929 109.093 245.323 109.093 245.744V246.42C109.093 246.997 109.192 247.486 109.391 247.887C109.593 248.285 109.873 248.588 110.231 248.797C110.589 249.002 111.005 249.105 111.479 249.105C111.788 249.105 112.066 249.062 112.315 248.976C112.566 248.886 112.783 248.754 112.966 248.578C113.148 248.399 113.289 248.177 113.388 247.912L114.522 248.23C114.403 248.615 114.202 248.953 113.92 249.244C113.639 249.533 113.291 249.758 112.876 249.92C112.462 250.08 111.996 250.159 111.479 250.159ZM118.019 245.406V250H116.846V242.364H117.98V243.557H118.079C118.258 243.169 118.53 242.857 118.894 242.622C119.259 242.384 119.73 242.264 120.306 242.264C120.823 242.264 121.276 242.37 121.663 242.582C122.051 242.791 122.353 243.109 122.568 243.537C122.784 243.961 122.891 244.498 122.891 245.148V250H121.718V245.227C121.718 244.627 121.562 244.16 121.251 243.825C120.939 243.487 120.512 243.318 119.968 243.318C119.594 243.318 119.259 243.399 118.964 243.562C118.672 243.724 118.442 243.961 118.273 244.273C118.104 244.584 118.019 244.962 118.019 245.406ZM126.49 239.818V240.713C126.49 240.985 126.44 241.275 126.34 241.583C126.244 241.888 126.102 242.185 125.913 242.473C125.727 242.758 125.502 243.007 125.237 243.219L124.6 242.702C124.809 242.403 124.99 242.094 125.142 241.772C125.298 241.447 125.376 241.101 125.376 240.733V239.818H126.49ZM131.986 242.364V243.358H128.028V242.364H131.986ZM129.182 240.534H130.355V247.812C130.355 248.144 130.403 248.393 130.499 248.558C130.598 248.721 130.724 248.83 130.877 248.886C131.033 248.939 131.197 248.966 131.369 248.966C131.498 248.966 131.604 248.959 131.687 248.946C131.77 248.929 131.836 248.916 131.886 248.906L132.125 249.96C132.045 249.99 131.934 250.02 131.792 250.05C131.649 250.083 131.469 250.099 131.25 250.099C130.918 250.099 130.594 250.028 130.275 249.886C129.96 249.743 129.699 249.526 129.49 249.234C129.284 248.943 129.182 248.575 129.182 248.131V240.534ZM143.34 246.878V242.364H144.514V250H143.34V248.707H143.261C143.082 249.095 142.804 249.425 142.426 249.697C142.048 249.965 141.571 250.099 140.994 250.099C140.517 250.099 140.092 249.995 139.721 249.786C139.35 249.574 139.058 249.256 138.846 248.832C138.634 248.404 138.528 247.866 138.528 247.216V242.364H139.701V247.136C139.701 247.693 139.857 248.137 140.169 248.469C140.483 248.8 140.884 248.966 141.372 248.966C141.663 248.966 141.96 248.891 142.262 248.742C142.567 248.593 142.822 248.364 143.027 248.056C143.236 247.748 143.34 247.355 143.34 246.878ZM147.083 252.864V242.364H148.216V243.577H148.355C148.442 243.444 148.561 243.275 148.713 243.07C148.869 242.861 149.091 242.675 149.38 242.513C149.671 242.347 150.066 242.264 150.563 242.264C151.206 242.264 151.773 242.425 152.263 242.746C152.754 243.068 153.136 243.524 153.412 244.114C153.687 244.704 153.824 245.4 153.824 246.202C153.824 247.01 153.687 247.711 153.412 248.305C153.136 248.895 152.755 249.352 152.268 249.677C151.781 249.998 151.219 250.159 150.583 250.159C150.092 250.159 149.699 250.078 149.404 249.915C149.109 249.75 148.882 249.562 148.723 249.354C148.564 249.142 148.442 248.966 148.355 248.827H148.256V252.864H147.083ZM148.236 246.182C148.236 246.759 148.321 247.267 148.49 247.708C148.659 248.146 148.906 248.489 149.23 248.737C149.555 248.982 149.953 249.105 150.424 249.105C150.914 249.105 151.323 248.976 151.652 248.717C151.983 248.455 152.232 248.104 152.397 247.663C152.566 247.219 152.651 246.725 152.651 246.182C152.651 245.645 152.568 245.161 152.402 244.73C152.24 244.296 151.993 243.953 151.662 243.701C151.333 243.446 150.921 243.318 150.424 243.318C149.946 243.318 149.545 243.439 149.221 243.681C148.896 243.92 148.65 244.254 148.485 244.685C148.319 245.113 148.236 245.612 148.236 246.182ZM157.207 239.818V250H156.034V239.818H157.207ZM162.879 250.159C162.189 250.159 161.584 249.995 161.064 249.667C160.547 249.339 160.142 248.88 159.851 248.29C159.562 247.7 159.418 247.01 159.418 246.222C159.418 245.426 159.562 244.732 159.851 244.138C160.142 243.545 160.547 243.085 161.064 242.756C161.584 242.428 162.189 242.264 162.879 242.264C163.568 242.264 164.171 242.428 164.688 242.756C165.209 243.085 165.613 243.545 165.901 244.138C166.193 244.732 166.339 245.426 166.339 246.222C166.339 247.01 166.193 247.7 165.901 248.29C165.613 248.88 165.209 249.339 164.688 249.667C164.171 249.995 163.568 250.159 162.879 250.159ZM162.879 249.105C163.402 249.105 163.833 248.971 164.171 248.702C164.509 248.434 164.759 248.081 164.922 247.643C165.084 247.206 165.165 246.732 165.165 246.222C165.165 245.711 165.084 245.236 164.922 244.795C164.759 244.354 164.509 243.998 164.171 243.726C163.833 243.454 163.402 243.318 162.879 243.318C162.355 243.318 161.924 243.454 161.586 243.726C161.248 243.998 160.998 244.354 160.835 244.795C160.673 245.236 160.592 245.711 160.592 246.222C160.592 246.732 160.673 247.206 160.835 247.643C160.998 248.081 161.248 248.434 161.586 248.702C161.924 248.971 162.355 249.105 162.879 249.105ZM170.797 250.179C170.313 250.179 169.874 250.088 169.479 249.906C169.085 249.72 168.772 249.453 168.54 249.105C168.308 248.754 168.192 248.33 168.192 247.832C168.192 247.395 168.278 247.04 168.45 246.768C168.623 246.493 168.853 246.278 169.141 246.122C169.43 245.966 169.748 245.85 170.096 245.774C170.447 245.695 170.8 245.632 171.155 245.585C171.619 245.526 171.995 245.481 172.283 245.451C172.575 245.418 172.787 245.363 172.92 245.287C173.056 245.211 173.124 245.078 173.124 244.889V244.849C173.124 244.359 172.989 243.978 172.721 243.706C172.456 243.434 172.053 243.298 171.513 243.298C170.953 243.298 170.514 243.421 170.195 243.666C169.877 243.911 169.653 244.173 169.524 244.452L168.411 244.054C168.609 243.59 168.875 243.229 169.206 242.97C169.541 242.708 169.905 242.526 170.3 242.423C170.697 242.317 171.089 242.264 171.473 242.264C171.718 242.264 172 242.294 172.318 242.354C172.64 242.41 172.95 242.528 173.248 242.707C173.55 242.886 173.8 243.156 173.999 243.517C174.197 243.878 174.297 244.362 174.297 244.969V250H173.124V248.966H173.064C172.984 249.132 172.852 249.309 172.666 249.498C172.481 249.687 172.234 249.848 171.925 249.98C171.617 250.113 171.241 250.179 170.797 250.179ZM170.976 249.125C171.44 249.125 171.831 249.034 172.149 248.852C172.471 248.669 172.713 248.434 172.875 248.146C173.041 247.857 173.124 247.554 173.124 247.236V246.162C173.074 246.222 172.965 246.276 172.795 246.326C172.63 246.372 172.438 246.414 172.219 246.45C172.003 246.483 171.793 246.513 171.587 246.54C171.385 246.563 171.221 246.583 171.095 246.599C170.79 246.639 170.505 246.704 170.24 246.793C169.978 246.879 169.766 247.01 169.604 247.186C169.445 247.358 169.365 247.594 169.365 247.892C169.365 248.3 169.516 248.608 169.818 248.817C170.122 249.022 170.509 249.125 170.976 249.125ZM179.742 250.159C179.106 250.159 178.544 249.998 178.057 249.677C177.569 249.352 177.188 248.895 176.913 248.305C176.638 247.711 176.5 247.01 176.5 246.202C176.5 245.4 176.638 244.704 176.913 244.114C177.188 243.524 177.571 243.068 178.062 242.746C178.552 242.425 179.119 242.264 179.762 242.264C180.259 242.264 180.652 242.347 180.94 242.513C181.232 242.675 181.454 242.861 181.606 243.07C181.762 243.275 181.883 243.444 181.969 243.577H182.069V239.818H183.242V250H182.108V248.827H181.969C181.883 248.966 181.76 249.142 181.601 249.354C181.442 249.562 181.215 249.75 180.92 249.915C180.625 250.078 180.232 250.159 179.742 250.159ZM179.901 249.105C180.372 249.105 180.769 248.982 181.094 248.737C181.419 248.489 181.666 248.146 181.835 247.708C182.004 247.267 182.089 246.759 182.089 246.182C182.089 245.612 182.006 245.113 181.84 244.685C181.674 244.254 181.429 243.92 181.104 243.681C180.779 243.439 180.378 243.318 179.901 243.318C179.404 243.318 178.99 243.446 178.658 243.701C178.33 243.953 178.083 244.296 177.917 244.73C177.755 245.161 177.674 245.645 177.674 246.182C177.674 246.725 177.757 247.219 177.922 247.663C178.091 248.104 178.34 248.455 178.668 248.717C179 248.976 179.411 249.105 179.901 249.105ZM189.175 250.159C188.44 250.159 187.805 249.997 187.271 249.672C186.741 249.344 186.332 248.886 186.043 248.3C185.758 247.71 185.616 247.024 185.616 246.241C185.616 245.459 185.758 244.77 186.043 244.173C186.332 243.573 186.733 243.106 187.246 242.771C187.764 242.433 188.367 242.264 189.056 242.264C189.454 242.264 189.847 242.33 190.234 242.463C190.622 242.596 190.975 242.811 191.293 243.109C191.612 243.404 191.865 243.795 192.054 244.283C192.243 244.77 192.337 245.37 192.337 246.082V246.58H186.451V245.565H191.144C191.144 245.134 191.058 244.75 190.886 244.412C190.717 244.074 190.475 243.807 190.16 243.612C189.848 243.416 189.48 243.318 189.056 243.318C188.589 243.318 188.184 243.434 187.843 243.666C187.505 243.895 187.245 244.193 187.063 244.561C186.88 244.929 186.789 245.323 186.789 245.744V246.42C186.789 246.997 186.889 247.486 187.087 247.887C187.29 248.285 187.57 248.588 187.928 248.797C188.286 249.002 188.701 249.105 189.175 249.105C189.484 249.105 189.762 249.062 190.011 248.976C190.263 248.886 190.48 248.754 190.662 248.578C190.844 248.399 190.985 248.177 191.085 247.912L192.218 248.23C192.099 248.615 191.898 248.953 191.616 249.244C191.335 249.533 190.987 249.758 190.572 249.92C190.158 250.08 189.692 250.159 189.175 250.159ZM197.426 250.159C196.789 250.159 196.228 249.998 195.74 249.677C195.253 249.352 194.872 248.895 194.597 248.305C194.322 247.711 194.184 247.01 194.184 246.202C194.184 245.4 194.322 244.704 194.597 244.114C194.872 243.524 195.255 243.068 195.745 242.746C196.236 242.425 196.803 242.264 197.446 242.264C197.943 242.264 198.336 242.347 198.624 242.513C198.916 242.675 199.138 242.861 199.29 243.07C199.446 243.275 199.567 243.444 199.653 243.577H199.752V239.818H200.926V250H199.792V248.827H199.653C199.567 248.966 199.444 249.142 199.285 249.354C199.126 249.562 198.899 249.75 198.604 249.915C198.309 250.078 197.916 250.159 197.426 250.159ZM197.585 249.105C198.055 249.105 198.453 248.982 198.778 248.737C199.103 248.489 199.35 248.146 199.519 247.708C199.688 247.267 199.772 246.759 199.772 246.182C199.772 245.612 199.689 245.113 199.524 244.685C199.358 244.254 199.113 243.92 198.788 243.681C198.463 243.439 198.062 243.318 197.585 243.318C197.088 243.318 196.673 243.446 196.342 243.701C196.014 243.953 195.767 244.296 195.601 244.73C195.439 245.161 195.358 245.645 195.358 246.182C195.358 246.725 195.44 247.219 195.606 247.663C195.775 248.104 196.024 248.455 196.352 248.717C196.683 248.976 197.094 249.105 197.585 249.105ZM210.262 250.179C209.778 250.179 209.339 250.088 208.945 249.906C208.55 249.72 208.237 249.453 208.005 249.105C207.773 248.754 207.657 248.33 207.657 247.832C207.657 247.395 207.743 247.04 207.916 246.768C208.088 246.493 208.318 246.278 208.607 246.122C208.895 245.966 209.213 245.85 209.561 245.774C209.912 245.695 210.265 245.632 210.62 245.585C211.084 245.526 211.46 245.481 211.749 245.451C212.04 245.418 212.252 245.363 212.385 245.287C212.521 245.211 212.589 245.078 212.589 244.889V244.849C212.589 244.359 212.455 243.978 212.186 243.706C211.921 243.434 211.518 243.298 210.978 243.298C210.418 243.298 209.979 243.421 209.661 243.666C209.342 243.911 209.119 244.173 208.989 244.452L207.876 244.054C208.075 243.59 208.34 243.229 208.671 242.97C209.006 242.708 209.371 242.526 209.765 242.423C210.163 242.317 210.554 242.264 210.938 242.264C211.184 242.264 211.465 242.294 211.783 242.354C212.105 242.41 212.415 242.528 212.713 242.707C213.015 242.886 213.265 243.156 213.464 243.517C213.663 243.878 213.762 244.362 213.762 244.969V250H212.589V248.966H212.529C212.45 249.132 212.317 249.309 212.131 249.498C211.946 249.687 211.699 249.848 211.391 249.98C211.082 250.113 210.706 250.179 210.262 250.179ZM210.441 249.125C210.905 249.125 211.296 249.034 211.614 248.852C211.936 248.669 212.178 248.434 212.34 248.146C212.506 247.857 212.589 247.554 212.589 247.236V246.162C212.539 246.222 212.43 246.276 212.261 246.326C212.095 246.372 211.903 246.414 211.684 246.45C211.469 246.483 211.258 246.513 211.053 246.54C210.85 246.563 210.686 246.583 210.56 246.599C210.256 246.639 209.97 246.704 209.705 246.793C209.443 246.879 209.231 247.01 209.069 247.186C208.91 247.358 208.83 247.594 208.83 247.892C208.83 248.3 208.981 248.608 209.283 248.817C209.588 249.022 209.974 249.125 210.441 249.125ZM217.497 245.406V250H216.324V242.364H217.457V243.557H217.557C217.736 243.169 218.007 242.857 218.372 242.622C218.737 242.384 219.207 242.264 219.784 242.264C220.301 242.264 220.753 242.37 221.141 242.582C221.529 242.791 221.831 243.109 222.046 243.537C222.261 243.961 222.369 244.498 222.369 245.148V250H221.196V245.227C221.196 244.627 221.04 244.16 220.729 243.825C220.417 243.487 219.989 243.318 219.446 243.318C219.071 243.318 218.737 243.399 218.442 243.562C218.15 243.724 217.92 243.961 217.751 244.273C217.581 244.584 217.497 244.962 217.497 245.406ZM225.415 252.864C225.216 252.864 225.039 252.847 224.883 252.814C224.728 252.784 224.62 252.754 224.56 252.724L224.859 251.69C225.144 251.763 225.395 251.79 225.614 251.77C225.833 251.75 226.027 251.652 226.196 251.477C226.368 251.304 226.526 251.024 226.668 250.636L226.887 250.04L224.063 242.364H225.336L227.444 248.449H227.523L229.631 242.364H230.904L227.663 251.114C227.517 251.508 227.336 251.835 227.121 252.093C226.905 252.355 226.655 252.549 226.37 252.675C226.088 252.801 225.77 252.864 225.415 252.864ZM43.2526 264.364L40.4287 272H39.2356L36.4117 264.364H37.6844L39.7924 270.449H39.8719L41.9799 264.364H43.2526ZM45.2213 272V264.364H46.3945V272H45.2213ZM45.8178 263.091C45.5891 263.091 45.3919 263.013 45.2262 262.857C45.0638 262.701 44.9826 262.514 44.9826 262.295C44.9826 262.077 45.0638 261.889 45.2262 261.734C45.3919 261.578 45.5891 261.5 45.8178 261.5C46.0465 261.5 46.2421 261.578 46.4045 261.734C46.5702 261.889 46.6531 262.077 46.6531 262.295C46.6531 262.514 46.5702 262.701 46.4045 262.857C46.2421 263.013 46.0465 263.091 45.8178 263.091ZM51.847 272.159C51.2107 272.159 50.6489 271.998 50.1617 271.677C49.6745 271.352 49.2933 270.895 49.0182 270.305C48.7431 269.711 48.6056 269.01 48.6056 268.202C48.6056 267.4 48.7431 266.704 49.0182 266.114C49.2933 265.524 49.6761 265.068 50.1666 264.746C50.6572 264.425 51.2239 264.264 51.8669 264.264C52.3641 264.264 52.7568 264.347 53.0452 264.513C53.3369 264.675 53.5589 264.861 53.7114 265.07C53.8672 265.275 53.9881 265.444 54.0743 265.577H54.1737V261.818H55.347V272H54.2135V270.827H54.0743C53.9881 270.966 53.8655 271.142 53.7064 271.354C53.5473 271.562 53.3203 271.75 53.0253 271.915C52.7303 272.078 52.3376 272.159 51.847 272.159ZM52.0061 271.105C52.4768 271.105 52.8745 270.982 53.1993 270.737C53.5241 270.489 53.771 270.146 53.9401 269.708C54.1091 269.267 54.1936 268.759 54.1936 268.182C54.1936 267.612 54.1108 267.113 53.9451 266.685C53.7793 266.254 53.5341 265.92 53.2093 265.681C52.8844 265.439 52.4834 265.318 52.0061 265.318C51.509 265.318 51.0947 265.446 50.7632 265.701C50.4351 265.953 50.1882 266.296 50.0225 266.73C49.8601 267.161 49.7789 267.645 49.7789 268.182C49.7789 268.725 49.8617 269.219 50.0274 269.663C50.1965 270.104 50.4451 270.455 50.7732 270.717C51.1046 270.976 51.5156 271.105 52.0061 271.105ZM61.2805 272.159C60.5447 272.159 59.91 271.997 59.3764 271.672C58.8461 271.344 58.4368 270.886 58.1484 270.3C57.8634 269.71 57.7209 269.024 57.7209 268.241C57.7209 267.459 57.8634 266.77 58.1484 266.173C58.4368 265.573 58.8378 265.106 59.3516 264.771C59.8686 264.433 60.4718 264.264 61.1612 264.264C61.5589 264.264 61.9517 264.33 62.3395 264.463C62.7273 264.596 63.0802 264.811 63.3984 265.109C63.7166 265.404 63.9702 265.795 64.1591 266.283C64.348 266.77 64.4425 267.37 64.4425 268.082V268.58H58.5561V267.565H63.2493C63.2493 267.134 63.1631 266.75 62.9908 266.412C62.8217 266.074 62.5798 265.807 62.2649 265.612C61.9534 265.416 61.5855 265.318 61.1612 265.318C60.6939 265.318 60.2895 265.434 59.9481 265.666C59.6101 265.895 59.3499 266.193 59.1676 266.561C58.9853 266.929 58.8942 267.323 58.8942 267.744V268.42C58.8942 268.997 58.9936 269.486 59.1925 269.887C59.3946 270.285 59.6747 270.588 60.0327 270.797C60.3906 271.002 60.8066 271.105 61.2805 271.105C61.5888 271.105 61.8672 271.062 62.1158 270.976C62.3677 270.886 62.5847 270.754 62.767 270.578C62.9493 270.399 63.0902 270.177 63.1896 269.912L64.3231 270.23C64.2038 270.615 64.0033 270.953 63.7216 271.244C63.4399 271.533 63.0918 271.758 62.6776 271.92C62.2633 272.08 61.7976 272.159 61.2805 272.159ZM69.7495 272.159C69.0601 272.159 68.4553 271.995 67.9349 271.667C67.4179 271.339 67.0135 270.88 66.7218 270.29C66.4335 269.7 66.2893 269.01 66.2893 268.222C66.2893 267.426 66.4335 266.732 66.7218 266.138C67.0135 265.545 67.4179 265.085 67.9349 264.756C68.4553 264.428 69.0601 264.264 69.7495 264.264C70.4389 264.264 71.0422 264.428 71.5592 264.756C72.0796 265.085 72.4839 265.545 72.7723 266.138C73.0639 266.732 73.2098 267.426 73.2098 268.222C73.2098 269.01 73.0639 269.7 72.7723 270.29C72.4839 270.88 72.0796 271.339 71.5592 271.667C71.0422 271.995 70.4389 272.159 69.7495 272.159ZM69.7495 271.105C70.2732 271.105 70.7041 270.971 71.0422 270.702C71.3802 270.434 71.6305 270.081 71.7929 269.643C71.9553 269.206 72.0365 268.732 72.0365 268.222C72.0365 267.711 71.9553 267.236 71.7929 266.795C71.6305 266.354 71.3802 265.998 71.0422 265.726C70.7041 265.454 70.2732 265.318 69.7495 265.318C69.2259 265.318 68.795 265.454 68.4569 265.726C68.1189 265.998 67.8686 266.354 67.7062 266.795C67.5438 267.236 67.4626 267.711 67.4626 268.222C67.4626 268.732 67.5438 269.206 67.7062 269.643C67.8686 270.081 68.1189 270.434 68.4569 270.702C68.795 270.971 69.2259 271.105 69.7495 271.105ZM80.8299 266.074L79.7759 266.372C79.7096 266.196 79.6118 266.026 79.4826 265.86C79.3566 265.691 79.1843 265.552 78.9655 265.442C78.7468 265.333 78.4667 265.278 78.1253 265.278C77.658 265.278 77.2686 265.386 76.957 265.602C76.6488 265.814 76.4946 266.084 76.4946 266.412C76.4946 266.704 76.6007 266.934 76.8128 267.103C77.0249 267.272 77.3564 267.413 77.8071 267.526L78.9407 267.804C79.6234 267.97 80.1322 268.223 80.4669 268.565C80.8017 268.903 80.9691 269.339 80.9691 269.872C80.9691 270.31 80.8431 270.701 80.5912 271.045C80.3427 271.39 79.9946 271.662 79.5472 271.861C79.0998 272.06 78.5794 272.159 77.9861 272.159C77.2072 272.159 76.5626 271.99 76.0522 271.652C75.5418 271.314 75.2186 270.82 75.0827 270.17L76.1963 269.892C76.3024 270.303 76.5029 270.611 76.7979 270.817C77.0962 271.022 77.4856 271.125 77.9662 271.125C78.5131 271.125 78.9473 271.009 79.2688 270.777C79.5936 270.542 79.756 270.26 79.756 269.932C79.756 269.667 79.6632 269.445 79.4776 269.266C79.292 269.083 79.007 268.947 78.6225 268.858L77.3498 268.56C76.6504 268.394 76.1367 268.137 75.8086 267.789C75.4838 267.438 75.3213 266.999 75.3213 266.472C75.3213 266.041 75.4423 265.66 75.6843 265.328C75.9295 264.997 76.2626 264.737 76.6836 264.548C77.1078 264.359 77.5884 264.264 78.1253 264.264C78.881 264.264 79.4743 264.43 79.9052 264.761C80.3393 265.093 80.6476 265.53 80.8299 266.074ZM89.2428 272L86.9161 264.364H88.1491L89.7997 270.21H89.8792L91.5099 264.364H92.7627L94.3735 270.19H94.4531L96.1036 264.364H97.3366L95.0099 272H93.8565L92.186 266.134H92.0667L90.3963 272H89.2428ZM99.3077 272V264.364H100.481V272H99.3077ZM99.9043 263.091C99.6756 263.091 99.4784 263.013 99.3127 262.857C99.1503 262.701 99.0691 262.514 99.0691 262.295C99.0691 262.077 99.1503 261.889 99.3127 261.734C99.4784 261.578 99.6756 261.5 99.9043 261.5C100.133 261.5 100.329 261.578 100.491 261.734C100.657 261.889 100.74 262.077 100.74 262.295C100.74 262.514 100.657 262.701 100.491 262.857C100.329 263.013 100.133 263.091 99.9043 263.091ZM106.371 264.364V265.358H102.414V264.364H106.371ZM103.567 262.534H104.74V269.812C104.74 270.144 104.788 270.393 104.885 270.558C104.984 270.721 105.11 270.83 105.262 270.886C105.418 270.939 105.582 270.966 105.755 270.966C105.884 270.966 105.99 270.959 106.073 270.946C106.156 270.929 106.222 270.916 106.272 270.906L106.51 271.96C106.431 271.99 106.32 272.02 106.177 272.05C106.035 272.083 105.854 272.099 105.635 272.099C105.304 272.099 104.979 272.028 104.661 271.886C104.346 271.743 104.084 271.526 103.875 271.234C103.67 270.943 103.567 270.575 103.567 270.131V262.534ZM109.893 267.406V272H108.72V261.818H109.893V265.557H109.993C110.172 265.162 110.44 264.849 110.798 264.617C111.159 264.382 111.64 264.264 112.24 264.264C112.76 264.264 113.216 264.369 113.607 264.577C113.998 264.783 114.301 265.099 114.517 265.527C114.736 265.951 114.845 266.491 114.845 267.148V272H113.672V267.227C113.672 266.621 113.514 266.152 113.199 265.82C112.888 265.486 112.455 265.318 111.902 265.318C111.517 265.318 111.173 265.399 110.868 265.562C110.566 265.724 110.327 265.961 110.152 266.273C109.979 266.584 109.893 266.962 109.893 267.406ZM124.016 272.179C123.532 272.179 123.093 272.088 122.699 271.906C122.304 271.72 121.991 271.453 121.759 271.105C121.527 270.754 121.411 270.33 121.411 269.832C121.411 269.395 121.497 269.04 121.67 268.768C121.842 268.493 122.072 268.278 122.361 268.122C122.649 267.966 122.967 267.85 123.315 267.774C123.666 267.695 124.019 267.632 124.374 267.585C124.838 267.526 125.214 267.481 125.503 267.451C125.794 267.418 126.006 267.363 126.139 267.287C126.275 267.211 126.343 267.078 126.343 266.889V266.849C126.343 266.359 126.209 265.978 125.94 265.706C125.675 265.434 125.272 265.298 124.732 265.298C124.172 265.298 123.733 265.421 123.415 265.666C123.096 265.911 122.873 266.173 122.743 266.452L121.63 266.054C121.829 265.59 122.094 265.229 122.425 264.97C122.76 264.708 123.125 264.526 123.519 264.423C123.917 264.317 124.308 264.264 124.692 264.264C124.938 264.264 125.219 264.294 125.537 264.354C125.859 264.41 126.169 264.528 126.467 264.707C126.769 264.886 127.019 265.156 127.218 265.517C127.417 265.878 127.516 266.362 127.516 266.969V272H126.343V270.966H126.283C126.204 271.132 126.071 271.309 125.885 271.498C125.7 271.687 125.453 271.848 125.145 271.98C124.836 272.113 124.46 272.179 124.016 272.179ZM124.195 271.125C124.659 271.125 125.05 271.034 125.368 270.852C125.69 270.669 125.932 270.434 126.094 270.146C126.26 269.857 126.343 269.554 126.343 269.236V268.162C126.293 268.222 126.184 268.276 126.015 268.326C125.849 268.372 125.657 268.414 125.438 268.45C125.223 268.483 125.012 268.513 124.807 268.54C124.604 268.563 124.44 268.583 124.314 268.599C124.01 268.639 123.724 268.704 123.459 268.793C123.197 268.879 122.985 269.01 122.823 269.186C122.664 269.358 122.584 269.594 122.584 269.892C122.584 270.3 122.735 270.608 123.037 270.817C123.342 271.022 123.728 271.125 124.195 271.125ZM130.237 272V261.818H133.796C134.506 261.818 135.091 261.941 135.551 262.186C136.012 262.428 136.355 262.754 136.58 263.165C136.806 263.573 136.919 264.026 136.919 264.523C136.919 264.96 136.841 265.321 136.685 265.607C136.532 265.892 136.33 266.117 136.078 266.283C135.83 266.448 135.56 266.571 135.268 266.651V266.75C135.58 266.77 135.893 266.879 136.208 267.078C136.522 267.277 136.786 267.562 136.998 267.933C137.21 268.304 137.316 268.759 137.316 269.295C137.316 269.806 137.2 270.265 136.968 270.673C136.736 271.08 136.37 271.403 135.87 271.642C135.369 271.881 134.718 272 133.916 272H130.237ZM131.47 270.906H133.916C134.721 270.906 135.293 270.75 135.631 270.439C135.972 270.124 136.143 269.743 136.143 269.295C136.143 268.951 136.055 268.633 135.88 268.341C135.704 268.046 135.454 267.811 135.129 267.635C134.804 267.456 134.42 267.366 133.975 267.366H131.47V270.906ZM131.47 266.293H133.757C134.128 266.293 134.463 266.22 134.761 266.074C135.063 265.928 135.301 265.723 135.477 265.457C135.656 265.192 135.745 264.881 135.745 264.523C135.745 264.075 135.589 263.696 135.278 263.384C134.966 263.069 134.473 262.912 133.796 262.912H131.47V266.293ZM139.603 272V264.364H140.776V272H139.603ZM140.2 263.091C139.971 263.091 139.774 263.013 139.608 262.857C139.446 262.701 139.364 262.514 139.364 262.295C139.364 262.077 139.446 261.889 139.608 261.734C139.774 261.578 139.971 261.5 140.2 261.5C140.428 261.5 140.624 261.578 140.786 261.734C140.952 261.889 141.035 262.077 141.035 262.295C141.035 262.514 140.952 262.701 140.786 262.857C140.624 263.013 140.428 263.091 140.2 263.091ZM146.666 264.364V265.358H142.709V264.364H146.666ZM143.862 262.534H145.036V269.812C145.036 270.144 145.084 270.393 145.18 270.558C145.279 270.721 145.405 270.83 145.558 270.886C145.714 270.939 145.878 270.966 146.05 270.966C146.179 270.966 146.285 270.959 146.368 270.946C146.451 270.929 146.517 270.916 146.567 270.906L146.806 271.96C146.726 271.99 146.615 272.02 146.473 272.05C146.33 272.083 146.149 272.099 145.931 272.099C145.599 272.099 145.274 272.028 144.956 271.886C144.641 271.743 144.379 271.526 144.171 271.234C143.965 270.943 143.862 270.575 143.862 270.131V262.534ZM153.965 274.864C153.766 274.864 153.588 274.847 153.433 274.814C153.277 274.784 153.169 274.754 153.109 274.724L153.408 273.69C153.693 273.763 153.945 273.79 154.163 273.77C154.382 273.75 154.576 273.652 154.745 273.477C154.917 273.304 155.075 273.024 155.217 272.636L155.436 272.04L152.612 264.364H153.885L155.993 270.449H156.072L158.18 264.364H159.453L156.212 273.114C156.066 273.508 155.885 273.835 155.67 274.093C155.454 274.355 155.204 274.549 154.919 274.675C154.637 274.801 154.319 274.864 153.965 274.864ZM164.35 272.159C163.614 272.159 162.98 271.997 162.446 271.672C161.916 271.344 161.506 270.886 161.218 270.3C160.933 269.71 160.79 269.024 160.79 268.241C160.79 267.459 160.933 266.77 161.218 266.173C161.506 265.573 161.907 265.106 162.421 264.771C162.938 264.433 163.541 264.264 164.231 264.264C164.628 264.264 165.021 264.33 165.409 264.463C165.797 264.596 166.15 264.811 166.468 265.109C166.786 265.404 167.04 265.795 167.229 266.283C167.418 266.77 167.512 267.37 167.512 268.082V268.58H161.626V267.565H166.319C166.319 267.134 166.233 266.75 166.06 266.412C165.891 266.074 165.649 265.807 165.334 265.612C165.023 265.416 164.655 265.318 164.231 265.318C163.763 265.318 163.359 265.434 163.018 265.666C162.68 265.895 162.419 266.193 162.237 266.561C162.055 266.929 161.964 267.323 161.964 267.744V268.42C161.964 268.997 162.063 269.486 162.262 269.887C162.464 270.285 162.744 270.588 163.102 270.797C163.46 271.002 163.876 271.105 164.35 271.105C164.658 271.105 164.937 271.062 165.185 270.976C165.437 270.886 165.654 270.754 165.837 270.578C166.019 270.399 166.16 270.177 166.259 269.912L167.393 270.23C167.273 270.615 167.073 270.953 166.791 271.244C166.509 271.533 166.161 271.758 165.747 271.92C165.333 272.08 164.867 272.159 164.35 272.159ZM173.038 264.364V265.358H169.08V264.364H173.038ZM170.234 262.534H171.407V269.812C171.407 270.144 171.455 270.393 171.551 270.558C171.651 270.721 171.777 270.83 171.929 270.886C172.085 270.939 172.249 270.966 172.421 270.966C172.551 270.966 172.657 270.959 172.74 270.946C172.822 270.929 172.889 270.916 172.938 270.906L173.177 271.96C173.097 271.99 172.986 272.02 172.844 272.05C172.701 272.083 172.521 272.099 172.302 272.099C171.971 272.099 171.646 272.028 171.328 271.886C171.013 271.743 170.751 271.526 170.542 271.234C170.337 270.943 170.234 270.575 170.234 270.131V262.534ZM176.078 272.08C175.833 272.08 175.622 271.992 175.446 271.816C175.271 271.64 175.183 271.43 175.183 271.185C175.183 270.939 175.271 270.729 175.446 270.553C175.622 270.378 175.833 270.29 176.078 270.29C176.323 270.29 176.534 270.378 176.709 270.553C176.885 270.729 176.973 270.939 176.973 271.185C176.973 271.347 176.931 271.496 176.848 271.632C176.769 271.768 176.661 271.877 176.525 271.96C176.393 272.04 176.244 272.08 176.078 272.08ZM184.432 272H183.14L186.878 261.818H188.151L191.89 272H190.597L187.555 263.429H187.475L184.432 272ZM184.91 268.023H190.12V269.116H184.91V268.023ZM196.62 272.159C195.984 272.159 195.422 271.998 194.935 271.677C194.448 271.352 194.066 270.895 193.791 270.305C193.516 269.711 193.379 269.01 193.379 268.202C193.379 267.4 193.516 266.704 193.791 266.114C194.066 265.524 194.449 265.068 194.94 264.746C195.43 264.425 195.997 264.264 196.64 264.264C197.137 264.264 197.53 264.347 197.818 264.513C198.11 264.675 198.332 264.861 198.485 265.07C198.64 265.275 198.761 265.444 198.847 265.577H198.947V261.818H200.12V272H198.987V270.827H198.847C198.761 270.966 198.639 271.142 198.48 271.354C198.32 271.562 198.093 271.75 197.798 271.915C197.503 272.078 197.111 272.159 196.62 272.159ZM196.779 271.105C197.25 271.105 197.648 270.982 197.972 270.737C198.297 270.489 198.544 270.146 198.713 269.708C198.882 269.267 198.967 268.759 198.967 268.182C198.967 267.612 198.884 267.113 198.718 266.685C198.552 266.254 198.307 265.92 197.982 265.681C197.658 265.439 197.257 265.318 196.779 265.318C196.282 265.318 195.868 265.446 195.536 265.701C195.208 265.953 194.961 266.296 194.796 266.73C194.633 267.161 194.552 267.645 194.552 268.182C194.552 268.725 194.635 269.219 194.801 269.663C194.97 270.104 195.218 270.455 195.546 270.717C195.878 270.976 196.289 271.105 196.779 271.105ZM205.735 272.159C205.099 272.159 204.537 271.998 204.05 271.677C203.563 271.352 203.182 270.895 202.907 270.305C202.632 269.711 202.494 269.01 202.494 268.202C202.494 267.4 202.632 266.704 202.907 266.114C203.182 265.524 203.565 265.068 204.055 264.746C204.546 264.425 205.112 264.264 205.755 264.264C206.253 264.264 206.645 264.347 206.934 264.513C207.225 264.675 207.447 264.861 207.6 265.07C207.756 265.275 207.877 265.444 207.963 265.577H208.062V261.818H209.235V272H208.102V270.827H207.963C207.877 270.966 207.754 271.142 207.595 271.354C207.436 271.562 207.209 271.75 206.914 271.915C206.619 272.078 206.226 272.159 205.735 272.159ZM205.895 271.105C206.365 271.105 206.763 270.982 207.088 270.737C207.413 270.489 207.659 270.146 207.829 269.708C207.998 269.267 208.082 268.759 208.082 268.182C208.082 267.612 207.999 267.113 207.833 266.685C207.668 266.254 207.423 265.92 207.098 265.681C206.773 265.439 206.372 265.318 205.895 265.318C205.397 265.318 204.983 265.446 204.652 265.701C204.324 265.953 204.077 266.296 203.911 266.73C203.748 267.161 203.667 267.645 203.667 268.182C203.667 268.725 203.75 269.219 203.916 269.663C204.085 270.104 204.333 270.455 204.662 270.717C204.993 270.976 205.404 271.105 205.895 271.105ZM217.498 267.406V272H216.325V264.364H217.458V265.557H217.558C217.737 265.169 218.008 264.857 218.373 264.622C218.738 264.384 219.208 264.264 219.785 264.264C220.302 264.264 220.754 264.37 221.142 264.582C221.53 264.791 221.832 265.109 222.047 265.537C222.263 265.961 222.37 266.498 222.37 267.148V272H221.197V267.227C221.197 266.627 221.041 266.16 220.73 265.825C220.418 265.487 219.99 265.318 219.447 265.318C219.072 265.318 218.738 265.399 218.443 265.562C218.151 265.724 217.921 265.961 217.752 266.273C217.583 266.584 217.498 266.962 217.498 267.406ZM228.036 272.159C227.347 272.159 226.742 271.995 226.222 271.667C225.705 271.339 225.3 270.88 225.009 270.29C224.72 269.7 224.576 269.01 224.576 268.222C224.576 267.426 224.72 266.732 225.009 266.138C225.3 265.545 225.705 265.085 226.222 264.756C226.742 264.428 227.347 264.264 228.036 264.264C228.726 264.264 229.329 264.428 229.846 264.756C230.367 265.085 230.771 265.545 231.059 266.138C231.351 266.732 231.497 267.426 231.497 268.222C231.497 269.01 231.351 269.7 231.059 270.29C230.771 270.88 230.367 271.339 229.846 271.667C229.329 271.995 228.726 272.159 228.036 272.159ZM228.036 271.105C228.56 271.105 228.991 270.971 229.329 270.702C229.667 270.434 229.917 270.081 230.08 269.643C230.242 269.206 230.323 268.732 230.323 268.222C230.323 267.711 230.242 267.236 230.08 266.795C229.917 266.354 229.667 265.998 229.329 265.726C228.991 265.454 228.56 265.318 228.036 265.318C227.513 265.318 227.082 265.454 226.744 265.726C226.406 265.998 226.156 266.354 225.993 266.795C225.831 267.236 225.75 267.711 225.75 268.222C225.75 268.732 225.831 269.206 225.993 269.643C226.156 270.081 226.406 270.434 226.744 270.702C227.082 270.971 227.513 271.105 228.036 271.105ZM235.178 272L232.851 264.364H234.084L235.735 270.21H235.814L237.445 264.364H238.698L240.309 270.19H240.388L242.039 264.364H243.272L240.945 272H239.792L238.121 266.134H238.002L236.331 272H235.178ZM246.794 261.818L246.695 269.136H245.541L245.442 261.818H246.794ZM246.118 272.08C245.873 272.08 245.662 271.992 245.487 271.816C245.311 271.64 245.223 271.43 245.223 271.185C245.223 270.939 245.311 270.729 245.487 270.553C245.662 270.378 245.873 270.29 246.118 270.29C246.363 270.29 246.574 270.378 246.749 270.553C246.925 270.729 247.013 270.939 247.013 271.185C247.013 271.347 246.971 271.496 246.889 271.632C246.809 271.768 246.701 271.877 246.565 271.96C246.433 272.04 246.284 272.08 246.118 272.08Z" fill="#A0A0A0"/>
<path d="M141.285 172C140.18 172 139.285 171.105 139.285 170V142C139.285 140.895 140.18 140 141.285 140H142.715C143.82 140 144.715 140.895 144.715 142V170C144.715 171.105 143.82 172 142.715 172H141.285ZM128 158.715C126.895 158.715 126 157.82 126 156.715V155.285C126 154.18 126.895 153.285 128 153.285H156C157.105 153.285 158 154.18 158 155.285V156.715C158 157.82 157.105 158.715 156 158.715H128Z" fill="#959595" fill-opacity="0.57"/>
</svg>
